<svg xmlns="http://www.w3.org/2000/svg" xmlns:xlink="http://www.w3.org/1999/xlink" width="800" zoomAndPan="magnify" viewBox="0 0 600 149.999998" height="200" preserveAspectRatio="xMidYMid meet" version="1.0"><defs><clipPath id="f17324d6a0"><path d="M 3.835938 3.550781 L 592 3.550781 L 592 146 L 3.835938 146 Z M 3.835938 3.550781 " clip-rule="nonzero"/></clipPath><clipPath id="eeb80508f3"><path d="M 151 3.550781 L 535 3.550781 L 535 140 L 151 140 Z M 151 3.550781 " clip-rule="nonzero"/></clipPath><clipPath id="16122c7d3f"><path d="M 40 3.550781 L 524 3.550781 L 524 143 L 40 143 Z M 40 3.550781 " clip-rule="nonzero"/></clipPath></defs><g clip-path="url(#f17324d6a0)"><path fill="#e8ddd6" d="M 21.761719 109.550781 C 27.761719 107.453125 33.925781 105.847656 39.824219 103.511719 C 45.902344 102.941406 51.203125 99.902344 56.925781 98.140625 C 59.855469 96.902344 64.894531 94.835938 66.171875 94.90625 C 67.453125 94.816406 72.589844 95.269531 75.710938 96.191406 C 81.585938 96.148438 84.855469 90.207031 91.773438 89.195312 C 97.058594 85.605469 103.421875 87.40625 109.269531 85.957031 C 115.835938 85.449219 120.28125 79.480469 127.101562 79.863281 C 132.945312 79.171875 139.183594 78.015625 144.433594 75.488281 C 150.914062 73.855469 155.589844 71.496094 161.707031 70.75 C 168.644531 71.234375 178.6875 74.804688 184.175781 69.875 C 189 66.847656 194.394531 65.09375 199.371094 62.359375 C 204.796875 60.777344 209.691406 57.839844 214.6875 55.355469 C 217.433594 54.582031 219.519531 52.886719 221.386719 50.898438 C 223.253906 48.90625 224.898438 46.621094 226.757812 44.667969 C 232.117188 42.34375 236.453125 38.960938 240.402344 34.679688 C 243.035156 31.546875 244.09375 26.9375 248.945312 26.109375 C 252.792969 22.273438 257.058594 18.964844 261.128906 15.347656 C 262.957031 9.710938 269.679688 8.464844 274.359375 5.867188 C 277.082031 4.652344 279.636719 4.300781 282.191406 3.789062 C 284.746094 4.308594 287.300781 5.460938 289.703125 7.089844 C 290.5625 7.617188 296.972656 6.597656 297.855469 7.003906 C 298.417969 7.285156 300.09375 8.976562 301.925781 9.753906 C 303.597656 9.976562 305.746094 10.402344 305.980469 10.851562 C 306.449219 11.878906 306.425781 11.753906 306.894531 12.398438 C 312.175781 14.648438 317.683594 17.949219 319.960938 19.5 C 322.710938 20.5 325.429688 21.570312 328.109375 22.734375 C 330.789062 23.898438 333.429688 25.15625 336.019531 26.542969 C 340.894531 26.933594 341.34375 34.503906 348.308594 37.132812 C 352.925781 42.039062 359.316406 44.253906 363.976562 49.003906 C 369.792969 52.226562 375.714844 54.402344 382.640625 53.738281 C 387.140625 53.941406 392.476562 61.453125 397.222656 64.507812 C 401.902344 65.765625 407.050781 65.191406 411.332031 68.570312 C 416.359375 72.34375 421.046875 75.632812 425.523438 80.085938 C 429.304688 84.753906 434.730469 87.601562 440.871094 86.113281 C 447.335938 86.210938 453.148438 82.351562 459.679688 84.742188 C 467.644531 85.742188 475.089844 89.007812 482.109375 92.796875 C 487.46875 94.785156 491.578125 100.242188 497.796875 99.378906 C 505.347656 99.988281 513.128906 100.097656 520.171875 103.296875 C 525.625 105.398438 531.789062 104.347656 536.882812 107.511719 C 544.976562 110.582031 547.050781 111.539062 554.820312 115.578125 C 561.019531 117.828125 569.996094 120.222656 574.441406 124.257812 C 579.410156 127.917969 585.0625 130.167969 590.585938 132.480469 C 596.351562 137.5 578.464844 134.222656 575.824219 134.359375 C 564.859375 134.113281 557.957031 139.585938 551.972656 141.164062 C 545.316406 143.484375 539.542969 144.042969 533.695312 140.996094 C 527.011719 138.933594 519.917969 138.65625 512.992188 138.175781 C 509 138.566406 502.492188 134.671875 499.917969 137.804688 C 501.492188 143.820312 502.5625 146.511719 494.75 144.207031 C 488.597656 142.152344 482.722656 139.480469 476.757812 136.976562 C 469.074219 134.921875 461.679688 131.011719 453.492188 131.8125 C 446.320312 131.363281 439.222656 132.386719 432.117188 132.671875 C 424.363281 132.441406 416.386719 131.691406 408.855469 134.03125 C 402.644531 135.761719 396.398438 137.40625 390.277344 139.320312 C 383.382812 143.898438 374.710938 141.375 367.03125 141.328125 C 360.265625 141.078125 353.617188 140.179688 347.214844 137.882812 C 336.027344 134.371094 324.425781 132.621094 312.988281 130.191406 C 305.4375 128.566406 297.828125 126.847656 291.003906 123.078125 C 285.875 120.777344 280.929688 118.074219 275.753906 115.972656 C 271.5 113.160156 264.890625 108.039062 260.839844 113.789062 C 255.289062 116.492188 248.9375 116.4375 244.230469 120.941406 C 240.863281 126.746094 235.234375 130.082031 228.34375 128.726562 C 221.960938 130.363281 215.628906 128.765625 209.351562 127.457031 C 202.234375 125.917969 195.367188 123.382812 188.046875 122.90625 C 181.570312 121.539062 174.992188 120.839844 168.414062 120.160156 C 161.546875 119.292969 154.164062 120.429688 147.890625 116.882812 C 140.617188 115.851562 154.175781 109.578125 146.171875 109.617188 C 137.96875 109.273438 129.394531 109.488281 121.828125 113.007812 C 115.738281 115.96875 107.398438 111.246094 102.449219 116.128906 C 100.339844 121.890625 93.390625 119.558594 88.777344 120.671875 C 82.800781 123.648438 76.09375 123.582031 69.652344 124.65625 C 64.335938 125.726562 58.90625 126.398438 53.683594 124.128906 C 44.820312 121.589844 36.027344 117.597656 26.601562 118.457031 C 19.011719 118.453125 11.425781 119.546875 3.839844 119.027344 C 9.429688 117.476562 14.359375 114.570312 18.90625 110.960938 C 19.808594 110.402344 20.730469 109.828125 21.765625 109.550781 Z M 21.761719 109.550781 " fill-opacity="1" fill-rule="evenodd"/></g><g clip-path="url(#eeb80508f3)"><path fill="#cbbbb5" d="M 180.902344 71.753906 C 179.894531 72.230469 178.246094 72.578125 175.648438 72.488281 C 171.027344 72.328125 167.042969 71.101562 162.082031 70.796875 C 163.242188 73.367188 164.953125 77.804688 165.558594 80.242188 C 166.4375 83.753906 164.382812 86.679688 161.96875 87.890625 L 157.480469 90.140625 L 152.996094 92.386719 C 150.796875 93.488281 151.191406 95.5 151.648438 97.335938 C 152.046875 98.933594 154.507812 100.652344 155.238281 101.382812 C 156.65625 102.804688 157.824219 102.519531 158.828125 104.53125 C 159.859375 106.601562 159.695312 108.703125 159.277344 110.378906 C 158.679688 112.773438 158.757812 113.90625 160.175781 115.328125 C 161.597656 116.753906 162.855469 117.574219 164.664062 118.027344 C 166.921875 118.589844 167.5 119.230469 169.148438 117.574219 C 170.382812 116.34375 170.027344 113.894531 169.597656 112.179688 C 169.316406 111.046875 167.113281 109.238281 166.457031 108.578125 C 164.46875 106.585938 168.28125 108.59375 169.148438 109.03125 C 171.328125 110.121094 172.019531 110.558594 174.535156 109.929688 C 176.496094 109.4375 176.78125 107.636719 176.78125 105.429688 C 176.78125 103.8125 174.191406 101.488281 173.636719 100.933594 C 171.8125 99.101562 172.308594 98.683594 174.535156 98.683594 C 176.148438 98.683594 178.320312 99.90625 179.472656 100.484375 C 181.257812 101.378906 181.757812 103.804688 182.164062 105.429688 C 182.894531 108.359375 185.660156 103.105469 185.753906 102.734375 C 186.203125 100.933594 187.539062 100.074219 188 98.234375 C 188.28125 97.101562 192.484375 95.984375 188 95.984375 C 185.214844 95.984375 183.9375 95.964844 182.613281 94.636719 C 181.097656 93.117188 180.371094 92.839844 180.371094 90.140625 C 180.371094 87.832031 181.382812 86.757812 182.164062 85.191406 C 183.074219 83.371094 183.0625 81.855469 183.0625 79.34375 C 183.0625 77.757812 181.328125 75.417969 180.816406 74.398438 C 180.617188 73.996094 180.902344 72.203125 180.902344 71.753906 Z M 306.898438 12.398438 C 308.710938 16.640625 283.308594 63.757812 270.996094 55.117188 C 273.71875 53.902344 291.535156 22.292969 282.195312 3.789062 C 284.75 4.308594 287.304688 5.460938 289.707031 7.089844 C 290.566406 7.617188 296.976562 6.597656 297.859375 7 C 298.421875 7.28125 300.097656 8.976562 301.929688 9.753906 C 303.605469 9.976562 305.75 10.398438 305.984375 10.847656 C 306.453125 11.878906 306.429688 11.753906 306.898438 12.398438 Z M 509.429688 100.484375 C 507.753906 99.929688 502.941406 99.664062 497.6875 99.378906 C 494.023438 99.964844 489.785156 97.410156 484.160156 93.75 C 478.871094 91.046875 474.214844 88.921875 470.835938 87.667969 C 470.335938 89.0625 471.019531 90.890625 467.136719 92.839844 C 465.714844 93.550781 465.789062 96.4375 465.789062 98.238281 C 465.789062 100.082031 463.675781 101.574219 463.097656 102.734375 C 462.332031 104.269531 460.734375 105.265625 459.507812 105.882812 C 457.980469 106.648438 457.703125 109.058594 457.261719 110.832031 C 456.726562 112.972656 457.261719 113.976562 458.609375 115.328125 C 459.980469 116.703125 463.082031 115.335938 463.992188 114.878906 C 465.109375 114.320312 465.808594 111.242188 466.238281 110.382812 C 466.734375 109.386719 470.46875 109.480469 472.070312 109.480469 C 473.359375 109.480469 475.679688 110.949219 477.007812 111.28125 C 480.507812 112.15625 481.613281 110.523438 482.394531 114.429688 C 482.761719 116.28125 477.742188 115.921875 481.945312 118.027344 C 483.664062 118.890625 485.082031 119.375 486.882812 119.828125 C 488.835938 120.316406 489.753906 121.109375 491.816406 121.625 L 497.203125 122.976562 C 497.984375 123.171875 499.222656 127.019531 499.445312 127.472656 C 499.632812 127.847656 502.980469 124.382812 503.035156 124.324219 C 504.46875 122.886719 505.992188 123.023438 507.972656 122.523438 C 510.109375 121.988281 512.222656 123.476562 513.808594 123.875 C 516.253906 124.488281 517.546875 124.398438 519.191406 125.222656 C 521.207031 126.234375 521.4375 127.140625 521.4375 129.722656 C 521.4375 131.4375 518.855469 132.363281 517.847656 132.871094 C 516.023438 133.78125 513.496094 133.242188 512.011719 132.871094 C 510.054688 132.378906 507.308594 132.871094 505.28125 132.871094 C 503.015625 132.871094 500.726562 133.144531 498.546875 133.769531 C 496.769531 134.277344 526.105469 139.210938 527.71875 139.617188 C 529.785156 140.132812 532.308594 139.929688 533.554688 139.617188 C 535.347656 139.167969 532.207031 136.074219 532.207031 134.21875 C 532.207031 132.070312 532.125 129.390625 531.757812 127.921875 C 531.320312 126.167969 529.269531 125.878906 528.167969 124.773438 C 526.742188 123.34375 525.917969 122.058594 525.476562 120.277344 C 524.90625 117.992188 523.273438 116.925781 521.886719 116.226562 C 520.171875 115.371094 519.398438 114.308594 517.847656 113.53125 C 515.558594 112.382812 514.847656 109.773438 513.808594 107.683594 C 513.042969 106.152344 510.429688 101.484375 509.429688 100.484375 Z M 509.429688 100.484375 " fill-opacity="1" fill-rule="evenodd"/></g><path fill="#f5eee9" d="M 328.066406 22.683594 C 326.289062 21.929688 322.257812 20.214844 319.894531 19.351562 C 315.847656 16.582031 309.9375 13.425781 307.042969 12.386719 C 304.175781 13.675781 301.105469 16.1875 298.242188 17.484375 C 296.621094 18.667969 294.875 19.6875 293.164062 20.707031 C 292.457031 22.007812 289.96875 25.265625 293.171875 24.824219 C 294.992188 24.375 297.542969 25.40625 295.644531 27.484375 C 295.183594 29.726562 290.875 30.097656 293.410156 32.492188 C 292.773438 35.128906 287.34375 34.242188 288.007812 37.746094 C 288.816406 40.84375 285.304688 40.503906 283.507812 41.042969 C 283.949219 44.210938 279.570312 44.207031 279.707031 47.125 C 279.605469 48.4375 279.703125 51.539062 280.925781 48.792969 C 282.75 46.863281 283.335938 43.628906 286.222656 42.914062 C 286.6875 45.152344 284.359375 48.035156 282.132812 49.121094 C 280.117188 51.128906 277.441406 51.90625 275.253906 53.632812 C 273.691406 56.097656 270.484375 55.703125 268.191406 54.667969 C 265.714844 53.738281 263.351562 55.296875 261.242188 56.394531 C 258.605469 56.558594 257.554688 59.105469 255.585938 60.398438 C 253.289062 61.289062 251.679688 63.46875 249.574219 64.363281 C 248.410156 62.441406 251.464844 58.917969 248.90625 57.800781 C 247.488281 60 244.746094 59.632812 242.429688 59.613281 C 240.417969 59.765625 237.769531 58.992188 236.484375 61.050781 C 237.585938 62.121094 237.761719 63.832031 235.59375 63.367188 C 232.597656 61.371094 230.550781 64.902344 227.910156 65.71875 C 225.789062 67.246094 221.527344 66.238281 221.367188 69.792969 C 220.09375 70.246094 217.871094 66.382812 216.828125 69.507812 C 215.074219 70.71875 210.308594 69.34375 211.246094 73.027344 C 210.699219 74.769531 207.414062 73.300781 206.488281 75.367188 C 204 75.789062 201.613281 76.488281 199.785156 78.378906 C 197.511719 80.1875 194.390625 79.386719 191.867188 80.667969 C 190.007812 81.15625 187.078125 78.503906 187.105469 81.878906 C 187.582031 85.160156 183.835938 83.683594 182.171875 84.789062 C 180.464844 86.371094 178.460938 88.300781 179.023438 90.878906 C 180.878906 92.1875 182.308594 94.492188 184.113281 95.511719 C 186.527344 95.320312 188.730469 94.105469 190.175781 92.15625 C 192.109375 90.621094 195.402344 93.933594 196.871094 90.8125 C 198.355469 89.058594 200.550781 88.769531 201.339844 91.214844 C 203.527344 94.019531 197.832031 93.054688 196.394531 93.921875 C 194.519531 96.0625 190.777344 94.238281 189.949219 97.78125 C 189.449219 99.277344 186.636719 100.503906 186.945312 101.78125 C 189.636719 101.269531 191.875 99.441406 194.390625 98.414062 C 197.023438 97.347656 199.671875 95.746094 202.523438 95.5625 C 201.40625 97.75 201.761719 101.265625 198.925781 102.300781 C 197.375 103.128906 192.699219 103.609375 194.015625 106.09375 C 195.847656 107.613281 197.394531 109.441406 198.949219 111.109375 C 201.847656 111.464844 204.066406 109.238281 206.285156 107.78125 C 207.554688 106.011719 207.621094 102.855469 210.257812 102.550781 C 212.195312 102.773438 215.582031 100.5625 216.636719 102.640625 C 215.960938 105.769531 220.425781 104.976562 220.960938 102.792969 C 223.804688 102.449219 226.882812 101.863281 228.980469 99.6875 C 228.679688 97.691406 227.90625 94.550781 231.03125 94.722656 C 232.796875 93.507812 235.429688 93.324219 237.355469 93.941406 C 236.839844 96.441406 235.195312 99.109375 232.613281 99.792969 C 229.417969 99.667969 231.777344 104.308594 233.636719 101.785156 C 235.625 99.433594 239.007812 100.535156 241.605469 99.429688 C 243.742188 98.445312 246.074219 98.390625 248.300781 97.855469 C 250.335938 96.882812 248.839844 94.949219 247.148438 96.089844 C 245.386719 96.746094 243.34375 97.375 243.191406 94.742188 C 243.164062 92.304688 238.207031 94.445312 238.671875 93.269531 C 241.355469 91.90625 244.242188 91.078125 247 89.894531 C 250.007812 89.351562 252.242188 87.007812 255.128906 86.171875 C 257.128906 85.042969 257.859375 81.769531 260.695312 82.503906 C 263.382812 82.066406 265.578125 79.652344 268.511719 80.320312 C 269.585938 80.199219 272.382812 81.363281 269.84375 81.402344 C 267.921875 80.980469 263.898438 83.011719 266.9375 84.734375 C 269.449219 84.976562 272.03125 83.859375 274.125 82.539062 C 276.691406 81.429688 279.339844 80.53125 282.15625 80.472656 C 285.179688 79.964844 284.746094 76.664062 283.488281 74.785156 C 284.011719 71.875 287.738281 71.292969 290.226562 71.382812 C 293.003906 72.09375 295.003906 74.714844 297.171875 76.53125 C 298.605469 78.855469 301.578125 79.214844 303.984375 79.730469 C 306.863281 78.855469 308.511719 80.988281 309.328125 83.496094 C 310.550781 85.078125 314.832031 85.007812 313.414062 87.886719 C 311.527344 87.683594 307.199219 88.425781 310.21875 90.78125 C 311.917969 91.691406 315.960938 92.289062 315.855469 89.34375 C 315.675781 87.785156 315.34375 86.328125 316.617188 85.214844 C 316.421875 83.496094 310.449219 82.191406 314.027344 80.605469 C 316.457031 80.054688 319.566406 76.140625 316.566406 74.632812 C 315.03125 75.070312 312.679688 74.613281 314.414062 72.734375 C 313.859375 70.113281 310.730469 73.957031 309.859375 71.222656 C 309.089844 69.40625 311.105469 66.199219 307.707031 66.984375 C 306.429688 67.222656 305 66.609375 307.003906 65.921875 C 309.464844 65.625 310.484375 63.132812 308 61.839844 C 305.886719 61.773438 305.566406 60.085938 307.265625 58.949219 C 309.378906 57.820312 312.363281 55.652344 309.316406 53.527344 C 307.742188 52.296875 308.785156 49.875 310.539062 51.597656 C 312.503906 53.328125 315.023438 53.90625 316.71875 55.726562 C 318.589844 56.183594 319.3125 52.886719 320.808594 55.628906 C 321.5 57.777344 324.597656 54.636719 323.65625 57.679688 C 322.976562 60.324219 324.644531 62.703125 325.535156 65.058594 C 324.035156 64.550781 322.183594 61.660156 320.46875 61.542969 C 319.726562 63.550781 319.5625 66.429688 322.441406 66.34375 C 324.96875 66.515625 327.035156 67.375 327.777344 70.03125 C 328.734375 72.578125 325.644531 74.914062 328.167969 77.148438 C 331.039062 78.316406 331.097656 82.015625 333.859375 83.253906 C 335.542969 83.976562 337.640625 81.984375 337.667969 84.867188 C 339.828125 86.660156 341.074219 89.441406 343.289062 91.046875 C 345.117188 92.203125 347.105469 92.890625 348.84375 91.210938 C 351.125 91.390625 351.699219 94.640625 354.167969 95.082031 C 355.097656 97.039062 356.28125 99.207031 358.808594 98.886719 C 361.417969 98.402344 362.632812 101.230469 364.753906 101.515625 C 366.265625 100.621094 365.914062 98.742188 364.476562 98.128906 C 365.617188 95.101562 367.933594 101.96875 368.808594 98.109375 C 371.71875 98.609375 367.792969 102.453125 371.421875 102.160156 C 373.324219 103.121094 376.199219 102.136719 376.253906 105.117188 C 377.375 106.527344 376.460938 109.667969 379.226562 108.746094 C 380.984375 108.992188 381.390625 112.257812 383.851562 111.339844 C 385.957031 110.152344 388.296875 109.839844 390.679688 109.945312 C 392.550781 108.679688 394.863281 112.476562 396 111.023438 C 394.441406 108.804688 392.117188 107.019531 389.984375 105.320312 C 387.238281 104.117188 387.898438 99.542969 384.039062 99.894531 C 382.382812 99.746094 380.199219 97.828125 380.519531 96.480469 C 382.773438 98.023438 385.519531 97.9375 387.871094 99.15625 C 389.769531 101.050781 391.601562 103.234375 393.441406 105.207031 C 395.03125 107 399.195312 105.183594 399.011719 108.699219 C 397.9375 111.273438 400.03125 115.191406 403.085938 114.199219 C 405.8125 113.375 408.683594 115.679688 411.277344 114.007812 C 412.625 112.652344 415.148438 112.832031 415.574219 114.953125 C 413.042969 114.8125 410.730469 115.753906 408.320312 116.21875 C 406.109375 116.355469 403.929688 114.195312 401.777344 115.632812 C 401.113281 118.71875 404.683594 120.265625 407.296875 119.722656 C 409.367188 119.617188 411.4375 119.941406 413.285156 120.894531 C 415.652344 120.929688 417.546875 122.898438 419.988281 122.59375 C 423.539062 122.71875 426.410156 125.160156 429.890625 125.585938 C 431.46875 125.714844 435.136719 127.066406 435.390625 125.046875 C 433.03125 123.296875 429.9375 122.691406 427.316406 121.316406 C 424.003906 120.425781 428.003906 116.238281 425.160156 114.753906 C 423.523438 113.429688 421.179688 119.109375 421.59375 115.871094 C 422.078125 114.640625 423.351562 112.941406 421.015625 113.035156 C 419.097656 113.378906 417.824219 112.613281 416.914062 110.925781 C 414.394531 110.707031 411.808594 110.816406 409.269531 110.90625 C 407.605469 110.457031 407.710938 112.097656 407.257812 112.757812 C 406.148438 111.40625 403.90625 110.882812 403.050781 109.714844 C 404.582031 108.734375 406.699219 106.941406 404.074219 105.683594 C 403.019531 104.328125 407.042969 104.378906 405.449219 102.570312 C 404.246094 100.371094 403.660156 96.53125 400.570312 96.449219 C 397.429688 95.800781 402.855469 95.121094 403.941406 95.746094 C 406.761719 95.371094 409.207031 98.253906 411.960938 96.953125 C 413.796875 95.203125 414.253906 91.542969 417.292969 91.519531 C 419.71875 91.382812 421.960938 90.6875 423.683594 88.984375 C 424.027344 88.003906 422.488281 86.457031 424.535156 87.152344 C 427.410156 88.128906 425.058594 85.332031 423.730469 84.847656 C 422.46875 82.519531 420.0625 81.25 418.441406 79.226562 C 416.113281 78.613281 414.980469 76.785156 414.09375 74.628906 C 411.683594 72.707031 408.832031 75.152344 406.375 75.785156 C 404.351562 76.695312 401.984375 76.707031 401.164062 79.117188 C 399.503906 79.867188 395.660156 79.863281 395.175781 78.40625 C 396.546875 78.300781 397.640625 77.082031 395.59375 76.808594 C 393.636719 77.445312 389.851562 75.816406 389.378906 78.605469 C 389.886719 81.367188 386.261719 81.203125 384.445312 81.792969 C 382.03125 81.734375 382.050781 86.957031 379.132812 84.867188 C 377.070312 83.394531 374.773438 80.765625 372.261719 83.148438 C 369.996094 84.960938 367.222656 85.226562 364.441406 85.324219 C 361.941406 86.101562 361.027344 83.132812 359.375 82.179688 C 356.183594 82.160156 355.90625 85.832031 358.714844 86.773438 C 360.199219 85.328125 361.6875 85.558594 362.085938 87.75 C 361.996094 89.9375 367.132812 90.96875 364.539062 92.707031 C 362.367188 91.183594 360.050781 89.316406 357.496094 88.074219 C 354.953125 87.042969 353.238281 84.832031 351.15625 83.148438 C 349.722656 80.722656 347.5625 79.070312 345.144531 77.816406 C 344 75.632812 342.644531 73.503906 340.988281 71.671875 C 339.089844 69.941406 340.65625 66.902344 339.730469 64.703125 C 339.554688 63.101562 335.621094 61.839844 338.5625 60.746094 C 340.21875 60.019531 343.605469 57.140625 343.730469 60.761719 C 343.878906 63.257812 340.449219 64.589844 341.699219 67.308594 C 342 68.355469 342.875 71.609375 342.648438 68.800781 C 342.148438 66.820312 343.875 64.238281 345.609375 63.882812 C 345.675781 66.492188 346.613281 68.859375 347.894531 71.089844 C 348.570312 73.621094 349.253906 76.261719 351.058594 78.226562 C 352.214844 80.625 355.324219 78.304688 355.539062 76.957031 C 354.113281 74.984375 351.449219 74.054688 350.585938 71.695312 C 351.296875 68.714844 348.488281 67.777344 346.769531 66.199219 C 346.207031 63.609375 348.152344 61.445312 349.882812 59.820312 C 350.890625 57.25 349.347656 54.617188 348.058594 52.453125 C 347.332031 49.757812 344.828125 48.328125 343.84375 45.828125 C 343.109375 44.140625 340.175781 42.632812 342.863281 41.097656 C 342.703125 38.714844 340.039062 36.9375 340.566406 34.230469 C 338.3125 32.996094 336.046875 31.878906 335.359375 29.144531 C 333.207031 28.195312 330.535156 28.296875 329.257812 25.902344 C 328.457031 25.003906 328.59375 23.734375 328.070312 22.679688 Z M 221.488281 50.828125 C 220.542969 51.976562 217.03125 54.671875 214.707031 55.269531 C 209.132812 58.175781 202.253906 61.683594 199.425781 62.3125 C 200.902344 62.136719 202.644531 62.261719 203.496094 63.671875 C 204.351562 64.867188 204.816406 66.460938 206.289062 67.074219 C 207.582031 67.722656 209.160156 68.296875 210.535156 67.539062 C 211.769531 66.910156 212.902344 66.082031 214.011719 65.265625 C 215.050781 64.25 215.878906 63.039062 216.484375 61.726562 C 217.347656 60.195312 219.238281 59.589844 220.90625 59.878906 C 222.769531 60.113281 225.019531 59.828125 226.113281 58.097656 C 226.882812 57.144531 228.898438 57.238281 228.691406 55.621094 C 228.605469 53.914062 230.578125 53.414062 231.800781 52.804688 C 233.023438 51.773438 234.242188 52.824219 235.308594 53.464844 C 236.75 53.777344 237.296875 52.097656 237.878906 51.140625 C 238.925781 50.210938 240.449219 50.421875 241.742188 50.246094 C 243.828125 50.179688 246.058594 50.660156 247.976562 49.578125 C 250.011719 48.695312 251.042969 46.628906 252.035156 44.773438 C 252.640625 43.484375 253.523438 42.191406 253.304688 40.691406 C 253.074219 38.960938 254.191406 37.503906 254.875 36.019531 C 256.527344 33.710938 257.136719 30.867188 258.550781 28.429688 C 259.183594 27.078125 259.742188 25.695312 260.296875 24.3125 C 258.894531 24.753906 257.871094 25.914062 256.503906 26.449219 C 254.628906 27.320312 252.816406 28.316406 251.140625 29.527344 C 249.410156 30.59375 247.9375 32.015625 246.796875 33.695312 C 245.464844 35.5625 244.367188 37.636719 242.566406 39.117188 C 241.113281 40.535156 239.289062 41.460938 237.757812 42.765625 C 236.386719 44.050781 235.054688 45.53125 233.1875 46.078125 C 230.054688 47.539062 227.226562 50.023438 223.632812 50.210938 C 222.878906 50.390625 222.261719 50.757812 221.488281 50.828125 Z M 293.457031 78.441406 C 293.714844 81.855469 286.21875 82.78125 290.355469 86.300781 C 292.53125 87.921875 299.355469 81.792969 297.472656 86.953125 C 295.808594 91.292969 290.3125 90.175781 286.988281 92.234375 C 283.058594 94.382812 279.230469 91.8125 275.429688 90.835938 C 273.007812 90.945312 266.054688 86.8125 271.246094 85.863281 C 276.023438 85.996094 280.441406 84.058594 283.84375 81.066406 C 286.570312 80.699219 285.660156 76.398438 289.371094 77.339844 C 290.847656 77.398438 292.617188 76.816406 293.457031 78.441406 Z M 306.25 91.710938 C 302.835938 92.664062 299.269531 88.171875 297.367188 92.417969 C 293.269531 93.898438 288.597656 98.46875 284.375 94.996094 C 282.296875 97.078125 274.53125 96.695312 278.195312 101.203125 C 281.691406 103.484375 287.289062 100.871094 289.847656 105.074219 C 292.554688 108.652344 297.757812 108.699219 301.859375 108.882812 C 305.492188 109.21875 308.925781 111.113281 312.3125 109.667969 C 313.9375 112.605469 315.226562 109.582031 313.078125 108.367188 C 313.542969 105.753906 317.753906 111.292969 320.019531 109.511719 C 322.964844 108.863281 330.921875 111.402344 328.625 106.042969 C 325.695312 102.925781 324.894531 96.515625 319.324219 98.386719 C 315.550781 98.613281 311.488281 97.5625 308.492188 95.308594 C 307.59375 94.167969 307.683594 92.460938 306.25 91.710938 Z M 312.753906 117.796875 C 308.789062 116.019531 304.0625 115.808594 300.640625 113.074219 C 296.65625 111.414062 292.207031 112.472656 288.015625 112.183594 C 285.300781 111.269531 281.957031 107.925781 278.757812 109.902344 C 282.148438 111.464844 285.367188 113.039062 287.097656 116.378906 C 291.25 117.5625 295.277344 118.746094 298.636719 121.566406 C 302.195312 122.605469 306.539062 123.296875 309.949219 121.636719 C 311.816406 121.175781 313.308594 119.898438 312.753906 117.796875 Z M 332.277344 84.515625 C 330.957031 88.582031 334.789062 92.375 338.664062 93.671875 C 341.449219 95.960938 335.625 92.003906 334.5 91.90625 C 332.671875 90.089844 325.941406 85.328125 327.398438 90.867188 C 329.878906 93.367188 323.695312 89.21875 322.40625 91.035156 C 318.304688 92.480469 322.386719 97.730469 325.800781 97.144531 C 330.457031 98.113281 334.253906 101.703125 339.109375 101.890625 C 339.832031 103.207031 344.621094 105.875 341.925781 102.730469 C 339.859375 99.9375 343.191406 95.640625 340.113281 92.605469 C 337.828125 89.523438 332.773438 89.125 332.277344 84.515625 Z M 350.453125 102.957031 C 347.652344 101.824219 340.449219 101.484375 344.914062 105.988281 C 346.785156 108.414062 351.738281 111.296875 351.949219 113.335938 C 348.796875 112.242188 346.335938 108.820312 343.539062 108.007812 C 344.25 109.640625 345.9375 111.542969 343.046875 109.703125 C 339.28125 108.957031 343.550781 113.082031 344.820312 113.9375 C 348.617188 116.71875 352.675781 119.128906 356.949219 121.003906 C 358.628906 122.457031 363.378906 124.074219 359.09375 121.617188 C 357.074219 119.777344 351.761719 118.015625 352.28125 115.441406 C 356.632812 117.152344 359.757812 121.371094 364.464844 122.488281 C 366.109375 123.945312 371.835938 126.429688 369.648438 121.949219 C 371.09375 117.996094 366.40625 114.121094 369.953125 111.214844 C 369.460938 105.085938 363.257812 107.878906 360.328125 110.375 C 357.945312 110.496094 356.050781 110.976562 358.308594 113.300781 C 359.984375 117.753906 368.160156 114.429688 367.460938 120.25 C 366.046875 121.878906 363.898438 117.324219 361.5625 117.777344 C 357.953125 115.449219 354.953125 112.039062 353.144531 108.128906 C 352.300781 106.335938 350.820312 104.984375 350.453125 102.953125 Z M 380.519531 133.089844 C 376.324219 133.355469 377.835938 139.425781 381.417969 136.6875 C 384.027344 135.429688 382.957031 133.453125 380.519531 133.089844 Z M 425.621094 104.980469 C 422 104.882812 421.542969 110.757812 417.921875 107.15625 C 416.777344 104.886719 414.125 103.5625 412.230469 102.046875 C 415.417969 101.035156 417.851562 104.425781 419.789062 105.65625 C 420.824219 103.050781 424.582031 100.753906 425.625 104.980469 Z M 368.023438 50.992188 C 372.027344 52.898438 377.75 54.007812 381.695312 53.769531 C 380.246094 56.15625 377.523438 58.113281 376.480469 60.902344 C 372.117188 62.019531 367.480469 62.839844 363.226562 63.960938 C 361.492188 62.988281 361.351562 60.300781 358.855469 59.984375 C 357.753906 55.597656 363.449219 56.691406 363.757812 52.925781 C 364.828125 51.875 367.148438 52.347656 368.023438 50.992188 Z M 456.269531 83.972656 C 457.195312 84.007812 458.105469 84.125 459.707031 84.722656 C 461.703125 84.882812 465.109375 85.683594 466.816406 86.179688 C 464.050781 86.613281 460.472656 92.929688 458.582031 93.125 C 457.957031 90.378906 456.792969 86.714844 456.269531 83.972656 Z M 451.425781 108.355469 C 449.316406 112.308594 443.652344 112.339844 441.085938 115.945312 C 436.972656 116.042969 433.550781 123.289062 429.738281 118.332031 C 427.816406 115.773438 425.925781 113.242188 428.355469 110.296875 C 430.140625 106.449219 435.910156 110.894531 438.980469 111.03125 C 442.699219 110.554688 448.078125 112.457031 448.808594 107.628906 C 449.71875 107.300781 450.660156 107.957031 451.425781 108.351562 Z M 462.644531 100.257812 C 462.054688 100.886719 455.933594 104.304688 458.796875 100.1875 C 459.453125 98.152344 463.808594 96.59375 462.644531 100.257812 Z M 456.585938 98.234375 C 454.304688 98.734375 452.148438 99.429688 453.550781 102.347656 C 455.089844 101.699219 458.238281 100.480469 456.585938 98.234375 Z M 489.792969 108.128906 C 486.738281 108.585938 484.359375 102.496094 488.632812 101.800781 C 493.707031 101.441406 489.671875 108.898438 494.898438 108.414062 C 500.15625 110.445312 492.761719 116.402344 489.570312 113.75 C 486.582031 113.296875 484.992188 107.613281 489.347656 109.703125 C 490.847656 110.910156 494.175781 111.789062 491.542969 109.019531 C 491.34375 108.191406 490.558594 107.871094 489.792969 108.128906 Z M 463.09375 117.574219 C 460.710938 116.433594 453.398438 116.585938 457.109375 120.351562 C 459.976562 119.972656 464.214844 122.066406 466.3125 120.269531 C 465.859375 118.898438 463.933594 118.699219 463.09375 117.574219 Z M 437.738281 124.097656 C 440.726562 123.171875 445.832031 123.660156 449.03125 125.835938 C 451.132812 126.539062 456.945312 129.359375 451.425781 129.269531 C 446.785156 129.148438 442.042969 127.332031 438.179688 124.875 Z M 460.625 124.097656 C 461.792969 121.910156 461.988281 125.160156 459.277344 124.097656 C 456.566406 123.03125 451.800781 128.28125 456.855469 127.808594 C 460.378906 127.203125 459.457031 126.28125 460.625 124.097656 Z M 462.867188 125.222656 C 460.929688 129.457031 468.378906 130.46875 471.445312 129.253906 C 476.132812 129.851562 481.140625 129.460938 485.488281 131.738281 C 489.007812 133.34375 495.46875 133.65625 497.003906 129.273438 C 496.339844 124.175781 489.308594 126.246094 485.761719 124.359375 C 481.324219 122.136719 477.3125 127.964844 473.25 124.222656 C 469.675781 122.253906 466.894531 127.9375 462.867188 125.222656 Z M 513.355469 119.597656 C 510.417969 121.523438 502.617188 119.210938 507.070312 115.351562 C 509.785156 114.1875 513.105469 116.847656 513.355469 119.597656 Z M 501.6875 127.695312 C 500.5625 132.1875 506.753906 132.1875 509.464844 131.027344 C 508.667969 128.148438 504.277344 129.628906 503.109375 126.953125 L 502.464844 127.222656 Z M 537.363281 142.3125 C 535.933594 139.46875 529.175781 138.921875 532.695312 134.769531 C 536.628906 132.65625 540.179688 137.609375 543.664062 134.664062 C 546.558594 133.894531 553.351562 135.238281 552.265625 138.988281 C 548.753906 141.632812 544.183594 142.671875 539.773438 142.636719 C 538.960938 142.601562 538.160156 142.46875 537.367188 142.3125 Z M 535.570312 109.929688 C 536.160156 114.84375 529.707031 114.851562 526.363281 115.539062 C 520.535156 115.863281 518.222656 109.695312 514.773438 106.242188 C 511.984375 104.59375 505.996094 106.269531 505.257812 102.542969 C 508.195312 102.121094 510.371094 106.484375 513.703125 104.203125 C 518.484375 104.910156 523.222656 105.507812 527.941406 106.105469 C 530.191406 108.074219 534.4375 106.632812 535.570312 109.929688 Z M 503.257812 107.453125 C 501.421875 108.332031 500.089844 105.75 499.445312 104.304688 C 495.402344 104.398438 501.308594 107.320312 501.621094 109.171875 C 503.601562 111 506.449219 108.179688 503.257812 107.453125 Z M 384.109375 65.851562 C 384.75 67.980469 386.554688 71.164062 389.332031 72.347656 C 388.183594 73.761719 384.960938 73.269531 386.578125 76.417969 C 383.808594 80.710938 379.421875 76.203125 376.328125 74.746094 C 374.910156 75.28125 379.386719 79.007812 380.359375 80.480469 C 382.304688 84.695312 376.414062 80.457031 375.359375 79.117188 C 373.335938 77.046875 369.664062 76.921875 371.121094 73.167969 C 370.605469 69.855469 376.128906 71.878906 375.65625 67.957031 C 376.621094 64.269531 381.347656 64.664062 384.109375 65.851562 Z M 133.472656 93.0625 C 132.722656 95.921875 130.28125 94.574219 128.710938 93.324219 C 125.21875 94.863281 121.558594 95.957031 118.4375 92.835938 C 113.863281 90.332031 108.839844 93.445312 104.210938 94.347656 C 102.273438 95.664062 94.722656 95.128906 99.832031 92.804688 C 104.0625 91.332031 108.8125 91.59375 112.757812 89.210938 C 117.925781 89.847656 122.597656 86.015625 127.730469 88.089844 C 129.535156 90.09375 131.253906 91.222656 133.472656 93.0625 Z M 95.550781 104.082031 C 94.886719 104.398438 85.730469 104.238281 90.613281 102.058594 C 92.3125 102.042969 95.808594 101.277344 95.550781 104.082031 Z M 256.210938 101.382812 C 255.425781 102.566406 250.074219 106.863281 251.273438 101.609375 C 252.167969 100.308594 254.890625 100.933594 256.210938 101.382812 Z M 232.203125 112.628906 C 230.410156 113.007812 229.285156 119.277344 226.816406 115.328125 C 223.515625 111.910156 230.441406 110.542969 232.203125 112.628906 Z M 274.609375 6.257812 C 274.371094 6.734375 274.386719 8.660156 274.386719 9.855469 C 274.386719 10.875 274.164062 11.765625 274.164062 13.003906 C 274.164062 13.597656 272.859375 14.265625 272.589844 14.800781 C 272.140625 15.707031 271.921875 16.359375 271.695312 17.277344 C 271.484375 18.109375 271.46875 19.285156 271.46875 20.425781 C 271.46875 21.886719 271.191406 22.328125 270.796875 23.125 C 270.34375 24.027344 269.914062 24.410156 269.675781 25.371094 C 269.441406 26.3125 268.777344 26.726562 268.550781 27.621094 C 268.34375 28.453125 268.328125 29.628906 268.328125 30.769531 L 268.328125 34.144531 C 268.328125 35.628906 267.898438 35.679688 267.429688 36.617188 C 266.953125 37.578125 266.757812 37.941406 266.757812 39.316406 C 266.757812 40.390625 266.796875 41.730469 266.980469 42.464844 C 267.25 43.535156 267.214844 44.75 267.429688 45.613281 C 267.773438 46.980469 267.179688 47.664062 266.53125 48.3125 C 265.972656 48.871094 266.023438 50.355469 265.859375 51.011719 C 265.554688 52.230469 265.644531 52.816406 266.53125 53.484375 C 267.527344 54.230469 267.949219 54.125 268.777344 53.707031 C 268.992188 53.601562 268.777344 50.699219 268.777344 50.335938 C 268.777344 49.316406 268.328125 48.605469 268.328125 47.410156 C 268.328125 46.539062 268.105469 45.289062 268.105469 44.261719 C 268.105469 42.816406 268.535156 42.535156 268.777344 41.566406 C 269.03125 40.539062 269.394531 40.21875 269.675781 39.089844 C 269.875 38.292969 270.378906 37.390625 270.570312 36.617188 C 270.816406 35.636719 270.570312 34.261719 270.570312 33.242188 C 270.570312 32.554688 271.285156 31.507812 271.46875 30.769531 C 271.707031 29.820312 271.394531 28.226562 271.246094 27.621094 C 271 26.632812 271.019531 25.683594 271.019531 24.472656 C 271.019531 22.980469 271.820312 21.886719 272.367188 20.648438 C 272.730469 19.832031 273.207031 19.132812 273.714844 18.625 C 274.199219 18.140625 274.386719 16.851562 274.386719 15.925781 C 274.386719 14.441406 274.609375 14.128906 275.058594 13.226562 C 275.496094 12.355469 275.964844 11.625 276.179688 10.753906 C 276.40625 9.847656 276.410156 8.738281 276.179688 7.832031 C 276.023438 7.195312 275.253906 6.644531 274.609375 6.257812 Z M 279.546875 19.75 C 279.300781 18.761719 281.769531 20.558594 282.015625 21.550781 C 282.269531 22.5625 282.21875 23.660156 282.015625 24.472656 C 281.808594 25.296875 280.980469 25.871094 280.667969 26.496094 C 279.753906 28.332031 278.953125 29.484375 278.425781 30.542969 C 278.097656 31.203125 277.289062 31.910156 276.855469 32.34375 C 276.507812 32.691406 276.070312 34.363281 275.957031 34.816406 C 275.617188 36.179688 274.5625 35.617188 274.164062 34.816406 C 273.863281 34.21875 275.03125 32.820312 275.285156 32.570312 C 275.671875 32.179688 276.179688 30.769531 276.40625 30.320312 L 277.527344 28.070312 C 277.921875 27.277344 278.429688 26.699219 278.648438 25.820312 C 278.882812 24.882812 279.433594 24.25 279.773438 23.574219 C 280.261719 22.589844 279.546875 20.679688 279.546875 19.75 Z M 400.488281 87.894531 C 396.796875 85.601562 391.332031 91.210938 398.027344 91.15625 C 400.808594 92.671875 403.492188 90.15625 400.488281 87.894531 Z M 314.101562 19.75 C 312.621094 24.253906 297.972656 26.480469 305.910156 31.214844 C 309.570312 31.898438 309.089844 26.566406 311.441406 30.429688 C 315.042969 31.226562 319.464844 23.75 319.539062 29.929688 C 324.09375 33.417969 330.226562 25.832031 322.574219 25.632812 C 318.9375 26.046875 312.78125 24.941406 319.125 22.242188 C 319.285156 19.910156 315.410156 20.878906 314.101562 19.75 Z M 302.65625 40.664062 C 295.464844 40.167969 302.242188 49.394531 304.015625 41.945312 C 307.371094 48.589844 310.582031 36.246094 304.613281 39.863281 C 304.628906 41.53125 303.453125 41.421875 302.65625 40.664062 Z M 313.425781 37.515625 C 311.578125 30.40625 327.363281 34.355469 318.175781 37.941406 C 314.328125 39.171875 311.953125 44.789062 317.855469 41.328125 C 321.777344 40.246094 327.96875 41.300781 323.898438 37.777344 C 334.414062 36.492188 324.570312 43.507812 321.050781 44.875 C 316.804688 45.894531 315.910156 46.246094 320.449219 48.269531 C 319.492188 50.542969 314.554688 50.726562 316.21875 47.320312 C 313.273438 45.523438 305.796875 53.597656 308.714844 46.738281 C 312.222656 45.171875 312.648438 40.824219 313.425781 37.515625 Z M 325.992188 59.554688 C 326.3125 61.539062 328.304688 64.085938 329.359375 61.714844 C 329.835938 64.992188 333.5 63.617188 330.523438 66.425781 C 331.09375 67.632812 329.359375 68.800781 330.644531 71.449219 C 327.152344 75.46875 333.570312 75.050781 332.882812 71.46875 C 335.34375 76.007812 332.625 68.132812 336.988281 71.925781 C 338.464844 68.085938 331.539062 68.445312 333.398438 64.054688 C 329.972656 63.402344 329.722656 53.964844 325.992188 59.554688 Z M 275.058594 64.503906 C 267.585938 65.453125 276.960938 70.996094 275.058594 64.503906 Z M 202.582031 89.691406 C 206.605469 88.585938 205.003906 95.777344 209.660156 91.484375 C 214.28125 90.152344 220.886719 89.402344 220.980469 84.066406 C 225.769531 84.171875 236.65625 77.640625 234.679688 75.613281 C 228.402344 78.210938 222.503906 82.304688 215.402344 81.578125 C 208.621094 87.714844 201.832031 78.230469 195.628906 84.132812 C 197.714844 85.425781 208.734375 82.628906 202.351562 87.734375 L 202.378906 88.398438 L 202.578125 89.691406 Z M 202.582031 89.691406 " fill-opacity="1" fill-rule="evenodd"/><g clip-path="url(#16122c7d3f)"><path fill="#8b786e" d="M 282.195312 3.785156 C 284.8125 4.632812 288.6875 5.335938 289.851562 7.933594 C 289.933594 9.808594 289.242188 11.582031 288.542969 13.261719 C 289.285156 15.410156 292.671875 16.796875 291.417969 19.75 C 290.757812 22.664062 286.5 18.625 285.9375 22.3125 C 285.148438 25.207031 285.613281 28.328125 284.585938 31.191406 C 283.945312 34.464844 285.535156 38.390625 283.15625 41.171875 C 281.476562 42.878906 278.027344 43.144531 278.71875 46.394531 C 279.707031 49.144531 277.644531 51.207031 275.121094 52.003906 C 273.695312 53.613281 269.253906 55.042969 271.476562 51.589844 C 272.976562 49.867188 276.757812 48.0625 274.3125 45.398438 C 272.816406 42.953125 277.578125 43.292969 277.921875 40.890625 C 279.476562 40.21875 280.292969 36.554688 277.707031 37.800781 C 275.757812 39.847656 273.546875 41.691406 271.289062 43.363281 C 270.324219 46.113281 268.421875 48.058594 266.195312 49.785156 C 264.832031 51.957031 266.269531 56.675781 262.277344 56.21875 C 259.425781 56.167969 258.054688 59.027344 255.996094 60.445312 C 253.3125 61.808594 254.304688 58.171875 254.414062 56.902344 C 251.960938 56.34375 253.246094 52.332031 255.1875 52.8125 C 255.480469 54.792969 257.570312 54.609375 257.953125 52.628906 C 259.492188 50.8125 260.3125 48.15625 262.738281 47.285156 C 264.945312 46.3125 266.75 44.691406 268.921875 43.648438 C 271.609375 42.070312 273.015625 39.175781 274.839844 36.800781 C 276.640625 35.246094 279.285156 34.339844 279.917969 31.773438 C 280.871094 29.183594 281.367188 26.414062 282.667969 23.976562 C 282.785156 22.03125 280.742188 20.285156 282.472656 18.335938 C 283.652344 15.699219 283.421875 12.234375 281.117188 10.261719 C 279.660156 9.058594 278.160156 5.894531 281.003906 5.453125 C 281.699219 5.222656 282.417969 4.597656 282.195312 3.785156 Z M 237.585938 58.652344 C 235.195312 59.414062 235.515625 63.007812 232.316406 62.308594 C 229.25 63.953125 226.550781 66.96875 222.867188 67.011719 C 219.222656 66.328125 216.949219 69.765625 213.5625 70.132812 C 210.816406 71.46875 209.980469 74.917969 206.320312 74.605469 C 202.816406 75.992188 199.714844 78.160156 196.011719 79.011719 C 193.113281 79.914062 189.554688 78.460938 187.101562 80.691406 C 186.234375 84.410156 181.507812 83.566406 179.246094 86.3125 C 177.179688 89.296875 179.730469 92.507812 180.035156 95.648438 C 178.824219 98.894531 174.988281 96.433594 172.601562 97.03125 C 170.085938 99.230469 168.882812 102.613281 166.914062 105.34375 C 163.621094 107.652344 163.101562 101.683594 166.679688 102.054688 C 170.535156 100.726562 170.976562 95.820312 174.878906 94.554688 C 179.398438 94.277344 177.644531 89.6875 176.777344 86.988281 C 178.191406 83.890625 183.066406 84.558594 184.40625 81.140625 C 184.664062 78.199219 186.144531 75.273438 189.570312 77.09375 C 192.78125 76.582031 194.910156 73.175781 198.441406 73.90625 C 202.125 73.257812 205.367188 71.039062 208.769531 69.496094 C 212.21875 67.476562 216.394531 67.164062 219.597656 64.625 C 222.832031 63.960938 225.800781 62.554688 228.726562 60.957031 C 231.566406 60.257812 231.332031 56.890625 230.402344 54.933594 C 231.664062 52.890625 235.246094 54.0625 232.652344 56.179688 C 231.453125 58.457031 234.203125 60.921875 236.121094 58.546875 C 236.613281 58.421875 237.105469 58.574219 237.585938 58.652344 Z M 158.828125 71.695312 C 159.128906 73.109375 159.769531 74.5625 159.335938 76.019531 C 158.441406 77.230469 156.761719 77.019531 155.457031 76.835938 C 154.238281 76.5 151.808594 78 153.367188 79.132812 C 154.613281 79.582031 156.039062 79.609375 157.339844 79.421875 C 158.664062 78.828125 159.757812 80.09375 159.015625 81.316406 C 158.578125 82.480469 158.511719 83.988281 157.375 84.714844 C 155.78125 85.257812 154.066406 84.796875 152.421875 84.96875 C 149.566406 85.128906 146.707031 85.28125 143.847656 85.171875 C 142.058594 85.164062 140.265625 85.367188 138.484375 85.351562 C 137.023438 84.964844 136.480469 83.390625 135.453125 82.464844 C 134.425781 81.769531 132.878906 81.871094 132.191406 80.695312 C 132.160156 79.351562 133.738281 79.140625 134.707031 78.796875 C 136.273438 78.160156 137.960938 77.917969 139.542969 77.34375 C 140.65625 76.875 141.652344 76.117188 142.878906 75.980469 C 143.945312 75.78125 145.03125 75.503906 145.902344 74.832031 C 149.003906 73.238281 152.53125 72.863281 155.933594 72.386719 C 156.917969 72.34375 158.066406 72.457031 158.828125 71.695312 Z M 323.75 67.648438 C 324.953125 67.988281 326.375 68.496094 326.914062 69.726562 C 327.300781 70.746094 326.945312 72.101562 325.609375 71.941406 C 324.871094 72 323.308594 72.066406 324.183594 73.167969 C 324.664062 74 326.15625 75.582031 324.6875 76.207031 C 323.554688 76.730469 322.300781 76.449219 321.195312 76.007812 C 320.082031 75.75 318.703125 75.28125 318.433594 74.007812 C 318.257812 72.777344 317.644531 71.699219 316.300781 71.558594 C 315.445312 71.09375 314.003906 70.453125 314.550781 69.222656 C 314.976562 67.964844 313.359375 67.589844 312.703125 66.835938 C 311.792969 66.246094 311.402344 65.179688 310.894531 64.273438 C 310.648438 63.199219 310.820312 61.996094 310.0625 61.078125 C 309.398438 60.160156 309 58.949219 309.859375 58 C 310.484375 57.117188 311.460938 56.179688 311.027344 54.988281 C 310.800781 53.890625 310.066406 52.878906 310.066406 51.773438 C 310.414062 50.171875 312.113281 51.546875 312.925781 51.996094 C 314.148438 52.605469 314.054688 54.335938 315.300781 54.914062 C 316.394531 55.460938 316.917969 56.714844 318.074219 57.164062 C 319.007812 57.839844 319.648438 58.925781 319.925781 60.035156 C 320.179688 61.28125 319.535156 62.730469 320.441406 63.804688 C 321.257812 64.949219 322.550781 65.628906 323.421875 66.707031 C 323.519531 67.023438 323.625 67.339844 323.75 67.648438 Z M 312.53125 58.652344 C 313.574219 59.582031 314.335938 60.8125 314.539062 62.207031 C 314.859375 63.484375 315.082031 64.824219 315.902344 65.898438 C 316.296875 66.847656 317.039062 67.554688 317.816406 68.195312 C 318.667969 67.609375 317.863281 65.957031 318.226562 64.984375 C 318.492188 64.496094 318.464844 62.707031 317.898438 63.949219 C 317.671875 64.914062 316.410156 66.132812 315.917969 64.632812 C 315.304688 63.566406 315.324219 62.324219 315.210938 61.140625 C 314.980469 59.796875 313.660156 59.378906 312.664062 58.75 Z M 374.6875 82.265625 C 368.78125 82.328125 362.085938 81.910156 366.742188 74.546875 C 365.617188 64.808594 360.996094 77.410156 362.007812 80.460938 C 353.722656 80.03125 359.226562 67.925781 365.039062 67.421875 C 364.335938 60.332031 381.621094 68.378906 372.359375 71.0625 C 367.527344 74.34375 378.050781 77.738281 374.6875 82.265625 Z M 363.242188 51.003906 C 360.085938 44.851562 351.945312 51.742188 347.984375 44.933594 C 345.191406 38.992188 343.558594 44.546875 347.535156 46.957031 C 352.253906 48.199219 351.734375 57.988281 356.113281 56.535156 C 356.296875 50.40625 361.714844 55.574219 363.242188 51.003906 Z M 403.183594 69.222656 C 403.289062 73.582031 393.066406 76.773438 395.105469 69.222656 C 398.003906 70.359375 400.867188 67.414062 403.183594 69.222656 Z M 397.574219 67.199219 C 390.023438 69.082031 397.554688 60.074219 397.574219 67.199219 Z M 391.515625 68.546875 C 390.5 65.679688 385.445312 65.945312 388.597656 69.894531 C 389.441406 70.867188 392.210938 70.089844 391.515625 68.546875 Z M 389.496094 75.292969 C 387.285156 76.472656 386.0625 79.171875 384.785156 80.015625 C 386.808594 81.53125 389.554688 76.570312 389.496094 75.292969 Z M 434.597656 88.113281 C 426.960938 88.546875 436.910156 98.949219 431.21875 99.339844 C 430.289062 95.28125 425.96875 86.207031 434.597656 88.113281 Z M 446.714844 85.863281 C 446.96875 92.671875 437.84375 96.195312 437.320312 102.660156 C 441.578125 104.183594 442.753906 92.675781 445.320312 95.105469 C 444.652344 92.25 452.457031 86.429688 446.714844 85.863281 Z M 450.980469 85.640625 C 451.882812 90 446.65625 94.34375 445.226562 98.632812 C 440.816406 100.4375 448.277344 105.183594 447.164062 98.683594 C 448.015625 93.617188 451.195312 92.53125 450.210938 97.847656 C 452.136719 95.8125 452.480469 82.113281 454.976562 90.03125 C 459.003906 86.875 454.574219 83.992188 450.980469 85.636719 Z M 454.121094 92.386719 C 452.261719 95.339844 455.226562 100.609375 455.769531 94.277344 C 455.675781 93.359375 454.878906 92.75 454.121094 92.386719 Z M 475.660156 101.382812 C 474.703125 107.488281 482.363281 100.433594 484.269531 106.171875 C 485.257812 101.609375 479.5 99.183594 475.660156 101.382812 Z M 512.460938 131.964844 C 516.242188 126.679688 505.730469 126.332031 512.15625 122.023438 C 517.382812 121.875 522.265625 124.140625 518.640625 128.464844 C 519.292969 132.621094 526.902344 133.179688 522.742188 138.113281 C 518.71875 137.722656 519.082031 134.195312 516.949219 131.515625 C 516.378906 125.679688 514.996094 129.894531 514.6875 132.898438 C 513.871094 133.230469 513.050781 132.265625 512.460938 131.964844 Z M 263.839844 111.277344 C 263.457031 107.15625 262.914062 102.382812 258.953125 100.066406 C 258.035156 88.542969 266.515625 102.960938 269.339844 106.328125 C 277.222656 107.855469 276.320312 116.738281 285.15625 118.921875 C 291.09375 124.308594 299.203125 125.523438 306.332031 127.210938 C 314.511719 130.03125 317.878906 128.476562 314.101562 119.820312 C 318.898438 111.933594 331.210938 117.820312 335.421875 123.871094 C 343.257812 126.480469 335.5625 129.339844 332.503906 124.769531 C 328.980469 117.914062 327.648438 124.324219 328.5625 128.21875 C 316.960938 131.25 330 132.929688 334.710938 133.960938 C 331.132812 127.394531 341 129.007812 345.519531 133.765625 C 355.875 138.316406 340.796875 126.945312 347.4375 125.398438 C 347.128906 120.132812 330.335938 116.664062 343.5 115.546875 C 350.5625 116.355469 357.125 122.328125 353.105469 129.097656 C 348.113281 139.613281 363.824219 138.96875 359.429688 128.59375 C 354.050781 121.207031 362.980469 124.78125 366.15625 127.175781 C 367.652344 130.234375 381.304688 131.984375 374.160156 133.804688 C 365.855469 127.597656 375.070312 137.324219 379.175781 137.585938 C 384.21875 143.441406 385.742188 139.351562 389.746094 135.148438 C 391.601562 138.832031 398.132812 138.21875 393.300781 133.121094 C 393.535156 123.152344 382.011719 141.035156 385.460938 130.390625 C 394.609375 126.796875 382.488281 125.402344 381.8125 119.863281 C 380.328125 111.253906 388.902344 116.796875 389.996094 121.332031 C 399.835938 129.476562 386.28125 106.167969 394.753906 115.515625 C 393.824219 126.851562 407.960938 117.609375 406.777344 128.140625 C 414.714844 127.511719 425.050781 130.496094 433.925781 131.515625 L 432.121094 132.667969 C 424.367188 132.4375 416.390625 131.6875 408.859375 134.027344 C 402.644531 135.757812 396.398438 137.402344 390.28125 139.316406 C 383.386719 143.894531 374.714844 141.371094 367.035156 141.324219 C 360.269531 141.074219 353.621094 140.179688 347.214844 137.878906 C 336.03125 134.367188 324.425781 132.617188 312.988281 130.1875 C 305.4375 128.5625 297.832031 126.84375 291.003906 123.074219 C 285.875 120.773438 280.933594 118.070312 275.753906 115.96875 C 271.503906 113.15625 264.890625 108.035156 260.84375 113.785156 C 255.292969 116.488281 248.941406 116.433594 244.234375 120.9375 C 240.867188 126.742188 235.238281 130.078125 228.347656 128.722656 C 221.964844 130.359375 215.628906 128.761719 209.355469 127.457031 C 202.238281 125.914062 195.371094 123.378906 188.050781 122.902344 C 181.574219 121.535156 174.992188 120.835938 168.417969 120.160156 C 161.546875 119.289062 154.164062 120.425781 147.894531 116.878906 C 147.007812 115.355469 146.550781 114.511719 148.957031 114.648438 C 154.503906 115.007812 160.726562 111.785156 161.746094 118.921875 C 172.945312 119.273438 184.5625 116.769531 194.8125 121.597656 C 199.355469 118.53125 199.285156 111.203125 206.625 115.773438 C 208.410156 114.964844 204.492188 111.40625 210.214844 111.273438 C 210.492188 106.917969 216.207031 112.71875 217.175781 108.25 C 216.113281 114.445312 229.144531 120.480469 220.585938 112.421875 C 217.121094 104.328125 225.488281 109.808594 224.320312 114.734375 C 226.78125 120.109375 244.050781 119.441406 232.957031 114.28125 C 233.949219 106.796875 247.933594 120.695312 246.789062 110.824219 C 247.792969 108.027344 256.125 110.4375 250.378906 114.199219 C 250.648438 115.292969 252 115.429688 252.621094 116.222656 M 60.101562 125.582031 C 59.484375 123.179688 56.265625 121.992188 58.152344 120.675781 C 60.511719 120.441406 62.875 121.886719 65.203125 120.898438 C 68.429688 119.894531 71.890625 120.625 75.113281 119.546875 C 79.316406 118.496094 83.699219 119.074219 87.980469 118.921875 C 90.402344 119.148438 92.640625 118.054688 94.855469 117.289062 C 95.808594 116.714844 97.84375 114.621094 95.347656 115.085938 C 92.9375 115.261719 90.441406 115.835938 88.109375 114.894531 C 85.828125 113.867188 84.753906 117.480469 82.414062 116.496094 C 79.824219 115.621094 77.117188 115.203125 74.382812 115.320312 C 70.828125 115.035156 67.515625 116.601562 64 116.757812 C 60.992188 116.972656 58.132812 118.273438 55.074219 118.019531 C 54.097656 118.175781 51.171875 117.925781 53.375 116.902344 C 55.84375 115.675781 58.726562 116.800781 61.304688 115.976562 C 63.660156 115.441406 66.203125 116.242188 68.46875 115.34375 C 68.714844 113.847656 65.382812 114.636719 64.28125 114.421875 C 60.777344 114.417969 57.203125 114.222656 53.820312 115.324219 C 52.441406 115.847656 52.246094 115.203125 53.648438 114.75 C 55.570312 113.960938 58.253906 113.449219 58.304688 110.824219 C 55.285156 111.511719 52.609375 113.429688 49.460938 113.671875 C 47.0625 114.296875 44.582031 114.441406 42.152344 114.871094 C 41.109375 116.035156 40.019531 118.179688 40.140625 119.453125 C 42.929688 120.957031 56.8125 125.6875 60.101562 125.582031 Z M 60.101562 125.582031 " fill-opacity="1" fill-rule="evenodd"/></g></svg>